<svg width="46" height="26" viewBox="0 0 46 26" fill="none" xmlns="http://www.w3.org/2000/svg">
<path d="M10.1372 10.0371H1.98461C0.96391 10.0371 0.139496 9.22499 0.139496 8.21952V2.3285C0.139496 1.32303 0.96391 0.510925 1.98461 0.510925H10.1241C11.1448 0.510925 11.9692 1.32303 11.9692 2.3285V8.21952C11.9823 9.22499 11.1579 10.0371 10.1372 10.0371ZM3.84282 6.40194H8.29203V4.14608H3.84282V6.40194Z" fill="#2D527C"/>
<path d="M25.9842 25.377C25.5131 25.377 25.042 25.1965 24.6756 24.8484C23.9559 24.1395 23.9559 22.9793 24.6756 22.2703L29.9623 17.0625C30.6821 16.3535 31.8598 16.3535 32.5795 17.0625C33.2993 17.7715 33.2993 18.9316 32.5795 19.6406L27.2928 24.8484C26.9264 25.1965 26.4553 25.377 25.9842 25.377Z" fill="#F0BF5F"/>
<path d="M38.4159 13.1308C37.9448 13.1308 37.4737 12.9504 37.1073 12.6023C36.3875 11.8933 36.3875 10.7332 37.1073 10.0242L42.0537 5.15155C42.7735 4.44257 43.9512 4.44257 44.6709 5.15155C45.3907 5.86053 45.3907 7.02069 44.6709 7.72967L39.7245 12.6023C39.3711 12.9504 38.887 13.1308 38.4159 13.1308Z" fill="#F0BF5F"/>
<path d="M30.8391 13.0406C30.368 13.0406 29.8969 12.8601 29.5305 12.5121L24.6756 7.72967C23.9559 7.02069 23.9559 5.86053 24.6756 5.15155C25.3954 4.44257 26.5731 4.44257 27.2928 5.15155L32.1477 9.93397C32.8674 10.643 32.8674 11.8031 32.1477 12.5121C31.7944 12.873 31.3102 13.0406 30.8391 13.0406Z" fill="#F0BF5F"/>
<path d="M43.3624 25.3769C42.8913 25.3769 42.4202 25.1964 42.0538 24.8484L37.1335 20.0015C36.4137 19.2925 36.4137 18.1324 37.1335 17.4234C37.8532 16.7144 39.0309 16.7144 39.7506 17.4234L44.671 22.2703C45.3907 22.9793 45.3907 24.1394 44.671 24.8484C44.3045 25.1964 43.8335 25.3769 43.3624 25.3769Z" fill="#F0BF5F"/>
</svg>
